# xmcd CD database file
#
# Track frame offsets:
#	182
#	11847
#	24102
#	36670
#	48442
#	61840
#	74810
#	88675
#	102215
#	116047
#	130890
#	144445
#	159310
#	173820
#	188097
#	202397
#	217282
#	229990
#	242820
#	257690
#	271975
#	286910
#	300440
#
# Disc length: 4208 seconds
#
# Revision: 0
# Processed by: cddbd v1.5PL3 Copyright (c) Steve Scherf et al.
# Submitted via: CDex 1.50beta9
#
DISCID=5b106e17
DTITLE=Louis Armstrong - The Complete Edition Vol.4-1924-1925
DYEAR=1925
DGENRE=Jazz
TTITLE0=Papa, Mama's All Alone Blues 
TTITLE1=Changeable Daddy Of Mine 
TTITLE2=Terrible Blues 
TTITLE3=Santa Claus Blues 
TTITLE4=Baby, Ican't Use You No More 
TTITLE5=Troble Everywhere I Roam 
TTITLE6=Mandy, Make Up Your Mind 
TTITLE7=Mandy, Make Up Your Mind 
TTITLE8=Poor House Blues 
TTITLE9=Anybody Here Want To Try My Cabbage 
TTITLE10=Thunderstorm Blues 
TTITLE11=If I Lose, Let Me Lose 
TTITLE12=Screamin' The Blues 
TTITLE13=Goodtime Flat Blues 
TTITLE14=Mandy, Make Up Your Mind 
TTITLE15=I'm A Little Blackbird 
TTITLE16=Nobody Knows The Way Ifeel Dis Mornin' 
TTITLE17=Early Every Morn 
TTITLE18=Calke Walking Babies 
TTITLE19=Nobody Knows The Way I Feel Dis Mornin' 
TTITLE20=Broken Busted Blues 
TTITLE21=Cake Walking Babies From Home 
TTITLE22=Pickin' On Your Baby 
EXTD=YEAR: 1925
EXTT0=
EXTT1=
EXTT2=
EXTT3=
EXTT4=
EXTT5=
EXTT6=
EXTT7=
EXTT8=
EXTT9=
EXTT10=
EXTT11=
EXTT12=
EXTT13=
EXTT14=
EXTT15=
EXTT16=
EXTT17=
EXTT18=
EXTT19=
EXTT20=
EXTT21=
EXTT22=
PLAYORDER=
